<svg xmlns="http://www.w3.org/2000/svg">
  <g xmlns="http://www.w3.org/2000/svg" xmlns:xlink="http://www.w3.org/1999/xlink">
    <g transform="matrix(.8 0 0 .8 998 -2)" fill="none">
      <path fill="#000000" d="M21,9L17,5V8H10V10H17V13M7,11L3,15L7,19V16H14V14H7V11Z" />
    </g>
    <g transform="matrix(.95 0 0 .9 1016.1 -3.5)" fill="none">
      <path fill="green" d="M13,20H11V8L5.5,13.5L4.08,12.08L12,4.16L19.92,12.08L18.5,13.5L13,8V20Z" />
    </g>
    <g transform="matrix(.95 0 0 .9 1036.1 -3.5)" fill="none">
      <path fill="red" d="M11,4H13V16L18.5,10.5L19.92,11.92L12,19.84L4.08,11.92L5.5,10.5L11,16V4Z" />
    </g>
  </g>

  <view id="swap" viewBox="1000 0 15 15" preserveAspectRatio="none" />
  <view id="up" viewBox="1020 0 15 15" preserveAspectRatio="none" />
  <view id="down" viewBox="1040 0 15 15" preserveAspectRatio="none" />
</svg>